<?xml version="1.0" encoding="UTF-8" standalone="no"?>
<svg width="52px" height="60px" viewBox="0 0 52 60" version="1.1" xmlns="http://www.w3.org/2000/svg" xmlns:xlink="http://www.w3.org/1999/xlink" xmlns:sketch="http://www.bohemiancoding.com/sketch/ns">
    <!-- Generator: Sketch 3.4 (15575) - http://www.bohemiancoding.com/sketch -->
    <title>file-article</title>
    <desc>Created with Sketch.</desc>
    <defs></defs>
    <g id="File-Formats" stroke="none" stroke-width="1" fill="none" fill-rule="evenodd" sketch:type="MSPage">
        <g id="Icon-2" sketch:type="MSArtboardGroup" transform="translate(-4.000000, 0.000000)" fill="#000000">
            <path d="M55.707,14.293 L41.707,0.293 C41.42,0.006 40.99,-0.08 40.617,0.076 C40.244,0.231 40,0.596 40,1 L40,11 C40,13.804 42.196,16 45,16 L49,16 C49.552,16 50,15.552 50,15 C50,14.448 49.552,14 49,14 L45,14 C43.29,14 42,12.71 42,11 L42,3.414 L54,15.414 L54,55 C54,56.654 52.654,58 51,58 L9,58 C7.346,58 6,56.654 6,55 L6,5 C6,3.346 7.346,2 9,2 L37,2 C37.552,2 38,1.552 38,1 C38,0.448 37.552,1.05471187e-15 37,1.05471187e-15 L9,1.05471187e-15 C6.243,1.05471187e-15 4,2.243 4,5 L4,55 C4,57.757 6.243,60 9,60 L51,60 C53.757,60 56,57.757 56,55 L56,15 C56,14.735 55.894,14.48 55.707,14.293 L55.707,14.293 Z M18,28 C18,29.103 18.897,30 20,30 C21.103,30 22,29.103 22,28 C22,26.897 21.103,26 20,26 C18.897,26 18,26.897 18,28 L18,28 Z M46,23 C46,22.448 45.552,22 45,22 L15,22 C14.448,22 14,22.448 14,23 L14,37 C14,37.552 14.448,38 15,38 L21,38 C21.265,38 21.519,37.895 21.707,37.707 L28,31.414 L30.293,33.707 C30.684,34.098 31.316,34.098 31.707,33.707 L36,29.414 L40.293,33.707 C40.684,34.098 41.316,34.098 41.707,33.707 C42.098,33.316 42.098,32.684 41.707,32.293 L36.707,27.293 C36.316,26.902 35.684,26.902 35.293,27.293 L31,31.586 L28.707,29.293 C28.316,28.902 27.684,28.902 27.293,29.293 L20.586,36 L16,36 L16,24 L44,24 L44,36 L27,36 C26.448,36 26,36.448 26,37 C26,37.552 26.448,38 27,38 L45,38 C45.552,38 46,37.552 46,37 L46,23 Z M15,50 L25,50 C25.552,50 26,49.552 26,49 C26,48.448 25.552,48 25,48 L15,48 C14.448,48 14,48.448 14,49 C14,49.552 14.448,50 15,50 L15,50 Z M29,50 L43,50 C43.552,50 44,49.552 44,49 C44,48.448 43.552,48 43,48 L29,48 C28.448,48 28,48.448 28,49 C28,49.552 28.448,50 29,50 L29,50 Z M36,43 C36,42.448 35.552,42 35,42 L25,42 C24.448,42 24,42.448 24,43 C24,43.552 24.448,44 25,44 L35,44 C35.552,44 36,43.552 36,43 L36,43 Z M15,44 L21,44 C21.552,44 22,43.552 22,43 C22,42.448 21.552,42 21,42 L15,42 C14.448,42 14,42.448 14,43 C14,43.552 14.448,44 15,44 L15,44 Z M46,43 C46,42.448 45.552,42 45,42 L38.999,42 C38.447,42 37.999,42.448 37.999,43 C37.999,43.552 38.447,44 38.999,44 L45,44 C45.552,44 46,43.552 46,43 L46,43 Z M14,17 C14,16.448 14.448,16 15,16 L25,16 C25.552,16 26,16.448 26,17 C26,17.552 25.552,18 25,18 L15,18 C14.448,18 14,17.552 14,17 L14,17 Z" id="file-article" sketch:type="MSShapeGroup"></path>
        </g>
    </g>
</svg>