<?xml version="1.0" encoding="UTF-8" standalone="no"?>
<svg width="60px" height="60px" viewBox="0 0 60 60" version="1.1" xmlns="http://www.w3.org/2000/svg" xmlns:xlink="http://www.w3.org/1999/xlink" xmlns:sketch="http://www.bohemiancoding.com/sketch/ns">
    <!-- Generator: Sketch 3.4.2 (15855) - http://www.bohemiancoding.com/sketch -->
    <title>mario-surprise</title>
    <desc>Created with Sketch.</desc>
    <defs></defs>
    <g id="Games" stroke="none" stroke-width="1" fill="none" fill-rule="evenodd" sketch:type="MSPage">
        <g id="Icon-6" sketch:type="MSArtboardGroup" fill="#000000">
            <path d="M6.5,5 C5.673,5 5,5.673 5,6.5 C5,7.327 5.673,8 6.5,8 C7.327,8 8,7.327 8,6.5 C8,5.673 7.327,5 6.5,5 L6.5,5 Z M53.5,5 C52.673,5 52,5.673 52,6.5 C52,7.327 52.673,8 53.5,8 C54.327,8 55,7.327 55,6.5 C55,5.673 54.327,5 53.5,5 L53.5,5 Z M6.5,52 C5.673,52 5,52.673 5,53.5 C5,54.327 5.673,55 6.5,55 C7.327,55 8,54.327 8,53.5 C8,52.673 7.327,52 6.5,52 L6.5,52 Z M53.5,52 C52.673,52 52,52.673 52,53.5 C52,54.327 52.673,55 53.5,55 C54.327,55 55,54.327 55,53.5 C55,52.673 54.327,52 53.5,52 L53.5,52 Z M36.356,32.409 C34.215,33.846 32,35.332 32.021,37.998 C32.021,37.998 32.015,38 32,38 L28,38 L28,37 C28,34.842 28.795,33.665 31.543,31.754 C32.001,31.435 32.463,31.134 32.915,30.839 C35.415,29.207 38,27.519 38,24 C38,19.589 34.411,16 30,16 C26.658,16 23.939,18.059 22.422,21.692 L19.163,20.388 C20.5,15.191 24.586,12 30,12 C36.617,12 42,17.383 42,24 C42,28.623 39.131,30.548 36.356,32.409 L36.356,32.409 Z M30,10 C23.398,10 18.303,14.242 17.019,20.808 C16.926,21.28 17.183,21.75 17.628,21.929 L22.628,23.929 C22.884,24.03 23.17,24.022 23.421,23.907 C23.67,23.792 23.862,23.578 23.949,23.316 C24.61,21.331 26.277,18 30,18 C33.309,18 36,20.691 36,24 C36,26.318 34.412,27.473 31.821,29.165 C31.354,29.47 30.876,29.782 30.402,30.112 C27.547,32.097 26,33.783 26,37 L26,38 C26,39.103 26.897,40 28,40 L32,40 C33.122,40 34,39.122 34,38 C34,36.476 35.319,35.513 37.471,34.07 C40.379,32.119 44,29.69 44,24 C44,16.28 37.72,10 30,10 L30,10 Z M28,48 L28,44 L32,44 L32.001,48 L28,48 Z M32,42 L28,42 C26.897,42 26,42.897 26,44 L26,48 C26,49.103 26.897,50 28,50 L32,50 C33.103,50 34,49.103 34,48 L34,44 C34,42.897 33.103,42 32,42 L32,42 Z M58,55 C58,56.654 56.654,58 55,58 L5,58 C3.346,58 2,56.654 2,55 L2,5 C2,3.346 3.346,2 5,2 L55,2 C56.654,2 58,3.346 58,5 L58,55 Z M55,0 L5,0 C2.243,0 0,2.243 0,5 L0,55 C0,57.757 2.243,60 5,60 L55,60 C57.757,60 60,57.757 60,55 L60,5 C60,2.243 57.757,0 55,0 L55,0 Z" id="mario-surprise" sketch:type="MSShapeGroup"></path>
        </g>
    </g>
</svg>