<?xml version="1.0" encoding="UTF-8" standalone="no"?>
<svg width="60px" height="60px" viewBox="0 0 60 60" version="1.1" xmlns="http://www.w3.org/2000/svg" xmlns:xlink="http://www.w3.org/1999/xlink" xmlns:sketch="http://www.bohemiancoding.com/sketch/ns">
    <!-- Generator: Sketch 3.4 (15575) - http://www.bohemiancoding.com/sketch -->
    <title>skateboard</title>
    <desc>Created with Sketch.</desc>
    <defs></defs>
    <g id="Family" stroke="none" stroke-width="1" fill="none" fill-rule="evenodd" sketch:type="MSPage">
        <g id="Icon-12" sketch:type="MSArtboardGroup" fill="#000000">
            <path d="M56.7539,23.002 C56.5559,23.237 56.2739,23.358 55.9879,23.358 C55.7609,23.358 55.5329,23.281 55.3449,23.124 C54.9219,22.768 54.8679,22.137 55.2239,21.715 C59.1919,16.997 58.8809,9.881 54.5149,5.515 C50.1289,1.129 42.9929,0.835 38.2729,4.844 C37.8529,5.201 37.2209,5.15 36.8629,4.729 C36.5059,4.308 36.5569,3.677 36.9779,3.319 C42.4879,-1.36 50.8119,-1.016 55.9289,4.101 C61.0229,9.194 61.3849,17.496 56.7539,23.002 L56.7539,23.002 Z M47.0299,29.586 L45.4439,28.001 L50.0299,23.415 L51.6159,25.001 L47.0299,29.586 Z M32.0299,14.586 L30.4439,13.001 L35.0299,8.415 L36.6159,10.001 L32.0299,14.586 Z M50.7369,21.294 C50.3459,20.903 49.7129,20.903 49.3229,21.294 L47.0299,23.586 L36.4439,13.001 L38.7369,10.708 C39.1279,10.317 39.1279,9.684 38.7369,9.294 L35.7369,6.294 C35.3459,5.903 34.7129,5.903 34.3229,6.294 L28.3229,12.294 C27.9319,12.684 27.9319,13.317 28.3229,13.708 L31.3229,16.708 C31.5179,16.903 31.7739,17.001 32.0299,17.001 C32.2859,17.001 32.5419,16.903 32.7369,16.708 L35.0299,14.415 L45.6159,25.001 L43.3229,27.294 C42.9319,27.684 42.9319,28.317 43.3229,28.708 L46.3229,31.708 C46.5179,31.903 46.7739,32.001 47.0299,32.001 C47.2859,32.001 47.5419,31.903 47.7369,31.708 L53.7369,25.708 C54.1279,25.317 54.1279,24.684 53.7369,24.294 L50.7369,21.294 Z M23.1259,55.34 C23.4799,55.764 23.4239,56.394 23.0009,56.749 C22.8839,56.847 22.7659,56.943 22.6449,57.037 C20.1079,59.023 17.0689,60 14.0409,60 C10.4359,60.001 6.8459,58.616 4.1299,55.9 C-1.0341,50.737 -1.3981,42.624 3.2809,37.03 C3.6359,36.606 4.2669,36.549 4.6899,36.904 C5.1139,37.259 5.1699,37.89 4.8159,38.313 C0.8049,43.107 1.1179,50.06 5.5449,54.486 C9.8299,58.77 16.6509,59.189 21.4139,55.461 C21.5169,55.38 21.6169,55.299 21.7169,55.216 C22.1389,54.861 22.7709,54.917 23.1259,55.34 L23.1259,55.34 Z M15.3229,26.708 C14.9319,26.317 14.9319,25.684 15.3229,25.294 L25.3229,15.294 C25.7129,14.903 26.3459,14.903 26.7369,15.294 C27.1279,15.684 27.1279,16.317 26.7369,16.708 L16.7369,26.708 C16.5419,26.903 16.2859,27.001 16.0299,27.001 C15.7739,27.001 15.5179,26.903 15.3229,26.708 L15.3229,26.708 Z M25.0299,51.586 L23.4439,50.001 L28.0299,45.415 L29.6159,47.001 L25.0299,51.586 Z M10.0299,36.586 L8.4439,35.001 L13.0299,30.415 L14.6159,32.001 L10.0299,36.586 Z M28.7369,43.294 C28.3459,42.903 27.7129,42.903 27.3229,43.294 L25.0299,45.586 L14.4439,35.001 L16.7369,32.708 C17.1279,32.317 17.1279,31.684 16.7369,31.294 L13.7369,28.294 C13.3459,27.903 12.7129,27.903 12.3229,28.294 L6.3229,34.294 C5.9319,34.684 5.9319,35.317 6.3229,35.708 L9.3229,38.708 C9.5179,38.903 9.7739,39.001 10.0299,39.001 C10.2859,39.001 10.5419,38.903 10.7369,38.708 L13.0299,36.415 L23.6159,47.001 L21.3229,49.294 C20.9319,49.684 20.9319,50.317 21.3229,50.708 L24.3229,53.708 C24.5179,53.903 24.7739,54.001 25.0299,54.001 C25.2859,54.001 25.5419,53.903 25.7369,53.708 L31.7369,47.708 C32.1279,47.317 32.1279,46.684 31.7369,46.294 L28.7369,43.294 Z M44.7369,33.294 C45.1279,33.684 45.1279,34.317 44.7369,34.708 L34.7369,44.708 C34.5419,44.903 34.2859,45.001 34.0299,45.001 C33.7739,45.001 33.5179,44.903 33.3229,44.708 C32.9319,44.317 32.9319,43.684 33.3229,43.294 L43.3229,33.294 C43.7129,32.903 44.3459,32.903 44.7369,33.294 L44.7369,33.294 Z M30.0299,26.001 C32.2349,26.001 34.0299,27.795 34.0299,30.001 C34.0299,32.206 32.2349,34.001 30.0299,34.001 C27.8239,34.001 26.0299,32.206 26.0299,30.001 C26.0299,27.795 27.8239,26.001 30.0299,26.001 L30.0299,26.001 Z M24.0299,30.001 C24.0299,33.309 26.7209,36.001 30.0299,36.001 C33.3379,36.001 36.0299,33.309 36.0299,30.001 C36.0299,26.692 33.3379,24.001 30.0299,24.001 C26.7209,24.001 24.0299,26.692 24.0299,30.001 L24.0299,30.001 Z" id="skateboard" sketch:type="MSShapeGroup"></path>
        </g>
    </g>
</svg>