<?xml version="1.0" encoding="UTF-8" standalone="no"?>
<svg width="60px" height="56px" viewBox="0 0 60 56" version="1.1" xmlns="http://www.w3.org/2000/svg" xmlns:xlink="http://www.w3.org/1999/xlink" xmlns:sketch="http://www.bohemiancoding.com/sketch/ns">
    <!-- Generator: Sketch 3.4 (15575) - http://www.bohemiancoding.com/sketch -->
    <title>sprint</title>
    <desc>Created with Sketch.</desc>
    <defs></defs>
    <g id="Sports" stroke="none" stroke-width="1" fill="none" fill-rule="evenodd" sketch:type="MSPage">
        <g id="Icon-1" sketch:type="MSArtboardGroup" transform="translate(0.000000, -2.000000)" fill="#000000">
            <path d="M33,26 C33.552,26 34,26.448 34,27 L34,39 C34,39.552 33.552,40 33,40 C32.448,40 32,39.552 32,39 L32,27 C32,26.448 32.448,26 33,26 M38.846,23.776 C31.5,22.721 25.227,18.065 22.067,11.323 C21.833,10.823 22.048,10.228 22.548,9.993 C23.05,9.76 23.644,9.974 23.878,10.474 C26.751,16.604 32.453,20.837 39.13,21.796 C39.677,21.875 40.057,22.382 39.978,22.928 C39.907,23.427 39.479,23.786 38.99,23.786 C38.942,23.786 38.895,23.783 38.846,23.776 M24,49 C24,49.552 23.552,50 23,50 L5,50 C4.448,50 4,49.552 4,49 C4,48.448 4.448,48 5,48 L23,48 C23.552,48 24,48.448 24,49 M17,44 L1,44 C0.448,44 0,43.552 0,43 C0,42.448 0.448,42 1,42 L17,42 C17.552,42 18,42.448 18,43 C18,43.552 17.552,44 17,44 M2,37 C2,36.448 2.448,36 3,36 L11,36 C11.552,36 12,36.448 12,37 C12,37.552 11.552,38 11,38 L3,38 C2.448,38 2,37.552 2,37 M57,56 L40.547,56 C39.456,56 38.708,55.293 38.707,55.293 L7.418,24.004 C6.902,23.488 6.864,22.55 7.34,22.075 L8,21.414 L40.293,53.707 C40.48,53.895 40.735,54 41,54 L58,54 L58,55 C58,55.57 57.57,56 57,56 M51,44 L45,44 C44.448,44 44,44.448 44,45 C44,45.552 44.448,46 45,46 L51,46 C54.648,46 57.469,48.519 57.927,52 L41.414,52 L9.414,20 L24.509,4.905 C25.338,7.537 27.243,12.657 30.293,15.707 C33.71,19.125 39.64,19.822 42,19.964 L42,28 L39.639,28 C39.292,27.405 38.654,27 37.917,27 C36.814,27 35.917,27.897 35.917,29 C35.917,30.103 36.814,31 37.917,31 C38.654,31 39.292,30.595 39.639,30 L42,30 L42,36 L39.639,36 C39.292,35.405 38.654,35 37.917,35 C36.814,35 35.917,35.897 35.917,37 C35.917,38.103 36.814,39 37.917,39 C38.654,39 39.292,38.595 39.639,38 L42,38 L42,39 C42,39.265 42.105,39.52 42.293,39.707 L44.293,41.707 C44.684,42.098 45.316,42.098 45.707,41.707 C46.098,41.316 46.098,40.684 45.707,40.293 L44,38.586 L44,19 C44,18.448 43.552,18 43,18 C42.924,18 35.372,17.958 31.707,14.293 C27.953,10.539 25.989,2.834 25.97,2.757 C25.882,2.408 25.614,2.132 25.267,2.036 C24.918,1.942 24.547,2.039 24.293,2.293 L7.294,19.292 C7.294,19.292 7.293,19.292 7.293,19.293 C7.292,19.293 7.292,19.294 7.292,19.294 L5.926,20.661 C4.679,21.907 4.716,24.13 6.004,25.418 L37.293,56.707 C37.425,56.839 38.641,58 40.547,58 L57,58 C58.682,58 60,56.682 60,55 L60,53 C60,47.953 56.047,44 51,44" id="sprint" sketch:type="MSShapeGroup"></path>
        </g>
    </g>
</svg>