<?xml version="1.0" ?><svg height="70" viewBox="0 0 45 70" width="45" xmlns="http://www.w3.org/2000/svg"><path d="M220.983,326.588 C220.974,324.287 220.946,321.987 220.937,319.686 C220.922,315.928 220.979,312.167 221.256,308.418 C221.641,303.217 219.439,296.375 226.188,295.918 C233.112,295.449 238.128,293.898 238.385,302.251 C238.649,310.883 231.729,308.918 225.358,307.331 C224.76,314.087 224.981,320.865 224.986,327.637 C227.629,327.453 227.934,327.892 227.812,325.113 C227.676,322.031 227.241,318.806 227.775,315.743 C228.761,310.082 237.313,311.373 241.358,312.418 C246.144,313.655 246.774,319.421 244.133,323.303 C241.762,326.787 234.639,322.501 231.664,322.07 C231.734,323.488 231.824,324.907 231.859,326.327 C231.909,328.366 234.197,327.473 235.883,327.682 C238.425,327.996 241.1,328.057 241.631,330.974 C242.034,333.186 242.76,337.572 240.96,339.371 C240.162,340.171 239.087,340.3 238.01,340.304 C238.136,341.488 238.064,342.65 237.982,343.828 C237.776,346.775 237.894,349.753 237.894,352.704 C237.894,355.164 238.773,359.501 237.894,361.82 C237.894,364.401 233.894,364.401 233.894,361.82 C233.614,361.082 233.894,359.661 233.894,358.89 L233.894,347.169 C233.894,344.94 235.182,339.957 232.497,339.957 C229.916,339.957 229.916,335.957 232.497,335.957 C234.303,335.957 236.093,336.316 237.902,336.281 C238.118,333.267 238.286,331.982 235.129,331.622 C231.943,331.259 228.716,331.399 225.525,331.609 C220.918,331.91 216.431,332.107 211.824,331.983 C208.925,331.906 209.165,333.174 209.628,336.068 C209.809,337.193 214.63,336.098 215.347,335.999 C218.297,335.59 221.409,335.116 224.357,335.786 C226.371,336.244 228.52,339.459 225.274,340.015 C222.847,340.43 219.831,339.449 217.197,339.787 C213.43,340.271 214.277,341.408 214.177,344.988 C214.117,346.739 215.009,351.713 212.075,351.713 C209.39,351.713 210.08,348.023 210.13,346.353 C210.204,343.884 211.28,340.948 208.79,340.407 C206.435,339.895 205.755,337.776 205.55,335.663 C204.913,329.082 207.795,327.735 213.856,328.072 C213.891,323.322 214.047,318.575 214.085,313.826 C211.651,314.346 203.265,320.334 201.798,315.274 C201.135,312.985 201.102,309.389 201.845,307.128 C202.776,304.293 207.546,304.394 209.867,304.246 C216.435,303.827 218.663,304.64 218.121,311.353 C217.698,316.868 217.899,322.557 217.857,328.096 C219.682,328.022 220.991,328.772 220.983,326.588 Z M214.282,309.112 C214.402,307.087 209.581,308.243 208.122,308.413 C204.798,308.8 205.305,309.86 205.573,313.067 C207.005,312.767 214.231,309.967 214.282,309.112 Z M234.297,304.731 C234.994,299.807 234.476,299.606 229.88,299.754 C227.506,299.831 225.354,298.913 225.472,301.589 C225.588,304.24 227.959,303.839 230.389,304.234 C231.682,304.444 232.989,304.639 234.297,304.731 Z M240.943,320.473 C241.85,317.142 241.954,316.439 238.551,315.968 C237.058,315.762 231.891,314.776 231.662,316.864 C231.457,318.728 235.08,318.802 236.768,319.353 C238.105,319.792 239.529,320.319 240.943,320.473 Z M210.076,356.472 C210.076,354.477 212.797,353.745 213.803,355.462 C214.7,356.994 214.167,360.47 214.167,362.227 C214.167,364.222 211.446,364.954 210.44,363.236 C209.554,361.723 210.076,358.184 210.076,356.472 Z" fill="#272727" transform="translate(-201 -295)"/></svg>