<?xml version="1.0" ?><svg data-name="Layer 1" id="Layer_1" viewBox="0 40 512 512" xmlns="http://www.w3.org/2000/svg"><title/><path fill="#546F81" d="M491,344.82H440.47L346.68,204a5,5,0,0,0-8.32,0L318.9,233.24l-52.47-78.76a5,5,0,0,0-8.32,0l-52.68,79.08-29.15-43.77a5,5,0,0,0-8.32,0l-52.38,78.64L64.69,344.82H21a5,5,0,0,0,0,10H491a5,5,0,0,0,0-10ZM342.45,228.69a5,5,0,0,1,4.16,2.23l39.62,59.46a5,5,0,0,1-4.17,7.77h-1.4a5,5,0,0,1-3.09-1.07l-13-10.19L363.31,294a5,5,0,0,1-8.14,2.94L333,278.35l-27.22,18.72a5,5,0,0,1-7-6.9l39.47-59.25A5,5,0,0,1,342.45,228.69ZM218.56,242,258,182.79a5,5,0,0,1,8.33,0L306,242.25a5,5,0,0,1-4.16,7.78h-1.4a5,5,0,0,1-3.09-1.07l-13-10.2-1.29,7.15a5,5,0,0,1-8.14,2.94l-22.14-18.63-27.22,18.72a5,5,0,0,1-7-6.9Zm-90,35L168,217.83a5,5,0,0,1,8.32,0l19.8,29.72-19.55,29.34-13.82-11.63L135.52,284a5,5,0,0,1-7-6.89Z"/></svg>